<svg width="100%" height="100%" viewBox="0 0 25 24" fill="#8992A0" xmlns="http://www.w3.org/2000/svg"><g id="close"><path id="Vector" d="M19.6894 5.3212C19.2753 4.90709 18.6064 4.90709 18.1923 5.3212L13 10.5028L7.80774 5.31058C7.39363 4.89647 6.72469 4.89647 6.31058 5.31058C5.89647 5.72469 5.89647 6.39363 6.31058 6.80774L11.5028 12L6.31058 17.1923C5.89647 17.6064 5.89647 18.2753 6.31058 18.6894C6.72469 19.1035 7.39363 19.1035 7.80774 18.6894L13 13.4972L18.1923 18.6894C18.6064 19.1035 19.2753 19.1035 19.6894 18.6894C20.1035 18.2753 20.1035 17.6064 19.6894 17.1923L14.4972 12L19.6894 6.80774C20.0929 6.40425 20.0929 5.72469 19.6894 5.3212Z" fill="current"></path></g></svg>