<svg width="62" height="62" viewBox="0 0 62 62" fill="none" xmlns="http://www.w3.org/2000/svg">
<g clip-path="url(#clip0_1244_54760)">
<path fill-rule="evenodd" clip-rule="evenodd" d="M53 12H8V43H53V12ZM29.5 31C32.5376 31 35 28.5376 35 25.5C35 22.4624 32.5376 20 29.5 20C26.4624 20 24 22.4624 24 25.5C24 28.5376 26.4624 31 29.5 31Z" fill="#F6F8F9"/>
<path d="M10.3334 46.5H51.6668C54.5084 46.5 56.8076 44.175 56.8076 41.3333L56.8334 12.9167C56.8334 10.075 54.5084 7.75 51.6668 7.75H10.3334C7.49175 7.75 5.16675 10.075 5.16675 12.9167V41.3333C5.16675 44.175 7.49175 46.5 10.3334 46.5ZM10.3334 12.9167H51.6668V41.3333H10.3334V12.9167Z" fill="#E5E8EB"/>
<path d="M58.4167 49.0833H3.58337C3.03109 49.0833 2.58337 49.531 2.58337 50.0833V53.2499C2.58337 53.8022 3.03109 54.2499 3.58337 54.2499H58.4167C58.969 54.2499 59.4167 53.8022 59.4167 53.2499V50.0833C59.4167 49.531 58.969 49.0833 58.4167 49.0833Z" fill="#E5E8EB"/>
<path d="M36.0892 19.4534C32.55 15.9143 26.8409 15.9143 23.3017 19.4534C19.7625 22.9926 19.7625 28.7018 23.3017 32.2409C26.2518 35.191 30.7502 35.6732 34.2216 33.6642C34.4248 33.5466 34.6833 33.5734 34.8493 33.7394L39.6107 38.5007C39.8059 38.696 40.1225 38.696 40.3178 38.5007L42.349 36.4695C42.5443 36.2742 42.5443 35.9577 42.349 35.7624L37.5877 31.0011C37.4217 30.8351 37.3949 30.5765 37.5125 30.3734C39.5231 26.902 39.0643 22.4035 36.0892 19.4534ZM33.3509 29.4768C31.3359 31.4918 28.055 31.4918 26.04 29.4768C24.025 27.4618 24.025 24.1809 26.04 22.1659C28.055 20.1509 31.3359 20.1509 33.3509 22.1659C35.3659 24.2068 35.3659 27.4618 33.3509 29.4768Z" fill="url(#paint0_linear_1244_54760)"/>
<path d="M55.1397 2.13384L55.1371 2.13058C54.0207 0.735098 51.9254 0.734141 50.8077 2.12772C49.869 3.2912 48.4514 5.15475 47.2605 7.16217C46.1124 9.09727 45 11.4472 45 13.5043C45 17.8977 48.5649 21.4626 52.9583 21.4626C57.3518 21.4626 60.9167 17.8977 60.9167 13.5043C60.9167 11.4476 59.8045 9.09768 58.6604 7.16377C57.4727 5.15619 56.0615 3.29263 55.1397 2.13384Z" fill="url(#paint1_linear_1244_54760)" stroke="white" stroke-width="3"/>
</g>
<defs>
<linearGradient id="paint0_linear_1244_54760" x1="21.0001" y1="18.4998" x2="43.0001" y2="38.9998" gradientUnits="userSpaceOnUse">
<stop stop-color="#197FEA"/>
<stop offset="1" stop-color="#21B9DF"/>
</linearGradient>
<linearGradient id="paint1_linear_1244_54760" x1="52.9583" y1="2.58325" x2="52.9583" y2="19.9626" gradientUnits="userSpaceOnUse">
<stop stop-color="#B1D9FE"/>
<stop offset="1" stop-color="#CFE8FF"/>
</linearGradient>
<clipPath id="clip0_1244_54760">
<rect width="62" height="62" fill="white"/>
</clipPath>
</defs>
</svg>
