<svg width="123" height="26" viewBox="0 0 123 26" fill="none" xmlns="http://www.w3.org/2000/svg">
<path d="M78.0242 7.98592C75.5435 7.98592 74.7048 8.70013 73.6957 9.13729V0H67.9236V25.5692H73.6957V24.6364C75.0733 25.0659 75.6172 25.5692 78.0242 25.5692C80.4311 25.5692 82.2688 24.7406 83.7785 23.086C85.2883 21.4313 86.0431 19.3167 86.0431 16.7445C86.0431 14.1723 85.2883 12.0704 83.7785 10.4361C82.2688 8.80433 80.3498 7.98592 78.0242 7.98592ZM79.1806 19.3777C78.5427 20.0156 77.676 20.3333 76.5805 20.3333C76.5703 20.3333 76.5576 20.3333 76.5424 20.3333C74.9513 20.285 73.6957 18.9634 73.6957 17.3723V16.1472C73.6957 14.5637 74.9538 13.2548 76.5348 13.2192C76.5525 13.2192 76.5678 13.2192 76.5805 13.2192C77.6988 13.2192 78.5706 13.5369 79.1984 14.1749C79.8237 14.8128 80.1388 15.6795 80.1388 16.775C80.1388 17.8705 79.8211 18.7372 79.1832 19.3751L79.1806 19.3777Z" fill="#1252F2"/>
<path d="M99.2318 17.8831C99.2318 19.1438 98.2533 20.2037 96.9952 20.2672C96.9774 20.2672 96.9621 20.2672 96.9494 20.2672C96.1666 20.2672 95.5413 20.0435 95.0711 19.5962C94.6009 19.1489 94.3671 18.5567 94.3671 17.817V7.99097H88.595V17.3468C88.595 19.8072 89.3676 21.7922 90.9104 23.302C92.4532 24.8117 94.423 25.5666 96.8173 25.5666C97.2519 25.5666 98.7794 25.3455 99.2344 25.259V25.2667C99.2547 25.2616 99.2725 25.254 99.2928 25.2489C99.303 25.2489 99.3157 25.2438 99.3233 25.2438C101.026 24.7634 102.396 23.8408 103.428 22.4658C104.48 21.0678 105.004 19.3624 105.004 17.3494V7.99097H99.2318V17.8831Z" fill="#1252F2"/>
<path d="M113.325 7.99097H107.553V25.5691H113.325V7.99097Z" fill="#1252F2"/>
<path d="M25.2317 13.6663C26.8775 13.2757 27.895 11.6249 27.5045 9.97917C27.1139 8.33339 25.4631 7.31584 23.8173 7.7064C22.1716 8.09696 21.154 9.74774 21.5446 11.3935C21.9351 13.0393 23.5859 14.0569 25.2317 13.6663Z" fill="#31DFDF"/>
<path d="M119.645 13.6714C121.291 13.2809 122.308 11.6301 121.918 9.9843C121.527 8.33852 119.876 7.32096 118.231 7.71152C116.585 8.10209 115.567 9.75287 115.958 11.3986C116.348 13.0444 117.999 14.062 119.645 13.6714Z" fill="#31DFDF"/>
<path d="M16.109 7.99097H10.0039L18.4397 25.5691H20.2849L22.5369 21.3271L16.109 7.99097Z" fill="#1252F2"/>
<path d="M6.10763 7.99097H0L8.43579 25.5691H10.281L12.533 21.3271L6.10763 7.99097Z" fill="#1252F2"/>
<path d="M42.5957 18.7956H45.4703C45.7169 17.9009 45.8389 16.9503 45.8389 15.9438C45.8389 13.73 45.1069 11.8492 43.6403 10.3064C42.1738 8.76363 40.2345 7.99097 37.8174 7.99097C37.6776 7.99097 37.5378 7.99351 37.398 7.99859V7.99351C35.0521 8.08247 33.067 8.92376 31.4403 10.5174C29.7171 12.2076 28.8555 14.2918 28.8555 16.775C28.8555 19.2582 29.74 21.4008 31.5064 23.0656C33.2729 24.7329 35.5324 25.5666 38.2851 25.5666C40.6869 25.5666 42.8651 24.8498 44.8197 23.4214L42.8804 19.3929C41.4494 20.2647 39.9829 20.7018 38.4858 20.7018C36.5745 20.7018 35.3215 20.0639 34.7267 18.7905H42.5856V18.7956H42.5957ZM34.5463 15.0339C34.6988 14.4976 34.9351 14.0325 35.2579 13.6411C35.873 12.8913 36.6508 12.5177 37.5912 12.5177C38.3511 12.5177 38.9993 12.7464 39.5381 13.2065C40.0744 13.664 40.354 14.274 40.3768 15.0339H34.5488H34.5463Z" fill="#1252F2"/>
<path d="M62.126 18.7956H65.0006C65.2472 17.9009 65.3692 16.9503 65.3692 15.9438C65.3692 13.73 64.6372 11.8492 63.1706 10.3064C61.7041 8.76363 59.7648 7.99097 57.3477 7.99097C57.2079 7.99097 57.0681 7.99351 56.9283 7.99859V7.99351C54.5823 8.08247 52.5973 8.92376 50.9706 10.5174C49.2474 12.2076 48.3857 14.2918 48.3857 16.775C48.3857 19.2582 49.2702 21.4008 51.0367 23.0656C52.8032 24.7329 55.0627 25.5666 57.8153 25.5666C60.2172 25.5666 62.3954 24.8498 64.35 23.4214L62.4107 19.3929C60.9797 20.2647 59.5132 20.7018 58.0161 20.7018C56.1048 20.7018 54.8517 20.0639 54.257 18.7905H62.1158V18.7956H62.126ZM54.0765 15.0339C54.229 14.4976 54.4654 14.0325 54.7882 13.6411C55.4033 12.8913 56.181 12.5177 57.1215 12.5177C57.8814 12.5177 58.5295 12.7464 59.0684 13.2065C59.6047 13.664 59.8842 14.274 59.9071 15.0339H54.0791H54.0765Z" fill="#1252F2"/>
</svg>
