<svg xmlns="http://www.w3.org/2000/svg" width="16" height="16" viewBox="0 0 16 16" fill="none" class="sc-313002c4-0 jwYXri"><path fill-rule="evenodd" clip-rule="evenodd" d="M12.9499 2H2.62399C1.91408 2 1.33325 2.58083 1.33325 3.29074V13.352C1.33325 13.9264 2.03025 14.2168 2.43683 13.8103L3.91473 12.3259H12.9499C13.6598 12.3259 14.2406 11.7451 14.2406 11.0352V3.29074C14.2406 2.58083 13.6598 2 12.9499 2ZM4.79992 8.26667C5.24175 8.26667 5.59992 7.90849 5.59992 7.46667C5.59992 7.02484 5.24175 6.66667 4.79992 6.66667C4.35809 6.66667 3.99992 7.02484 3.99992 7.46667C3.99992 7.90849 4.35809 8.26667 4.79992 8.26667ZM7.99991 8.26667C8.44174 8.26667 8.79991 7.90849 8.79991 7.46667C8.79991 7.02484 8.44174 6.66667 7.99991 6.66667C7.55808 6.66667 7.19991 7.02484 7.19991 7.46667C7.19991 7.90849 7.55808 8.26667 7.99991 8.26667ZM11.9999 7.46667C11.9999 7.90849 11.6417 8.26667 11.1999 8.26667C10.7581 8.26667 10.3999 7.90849 10.3999 7.46667C10.3999 7.02484 10.7581 6.66667 11.1999 6.66667C11.6417 6.66667 11.9999 7.02484 11.9999 7.46667Z" fill="#4175F5"></path></svg>